<svg width="28" height="32" viewBox="0 0 28 32" fill="none" xmlns="http://www.w3.org/2000/svg">
<path d="M17.9181 6.81477H16.5626V5.49701H17.9181V6.81477ZM11.1403 6.81477H9.78479V5.49701H11.1403V6.81477ZM18.6366 3.07232L20.4123 1.34605C20.6699 1.09567 20.6699 0.67399 20.4123 0.410438C20.1412 0.160062 19.7075 0.160062 19.4499 0.410438L17.4437 2.36073C16.3592 1.8468 15.1392 1.54371 13.8515 1.54371C12.5501 1.54371 11.3301 1.8468 10.2457 2.37391L8.2259 0.410438C7.96834 0.160062 7.53457 0.160062 7.27701 0.410438C7.0059 0.67399 7.0059 1.09567 7.27701 1.34605L9.05279 3.07232C7.03301 4.52186 5.71812 6.81477 5.71812 9.4503H21.9848C21.9848 6.81477 20.6292 4.50868 18.6366 3.07232ZM25.3737 10.7681C24.8344 10.7681 24.3172 10.9763 23.9359 11.347C23.5546 11.7177 23.3403 12.2205 23.3403 12.7447V21.9691C23.3403 22.4933 23.5546 22.9961 23.9359 23.3668C24.3172 23.7374 24.8344 23.9457 25.3737 23.9457C25.913 23.9457 26.4301 23.7374 26.8115 23.3668C27.1928 22.9961 27.407 22.4933 27.407 21.9691V12.7447C27.407 12.2205 27.1928 11.7177 26.8115 11.347C26.4301 10.9763 25.913 10.7681 25.3737 10.7681ZM2.32923 10.7681C1.78996 10.7681 1.27277 10.9763 0.891448 11.347C0.510124 11.7177 0.295898 12.2205 0.295898 12.7447V21.9691C0.295898 22.4933 0.510124 22.9961 0.891448 23.3668C1.27277 23.7374 1.78996 23.9457 2.32923 23.9457C2.86851 23.9457 3.38569 23.7374 3.76702 23.3668C4.14834 22.9961 4.36257 22.4933 4.36257 21.9691V12.7447C4.36257 12.2205 4.14834 11.7177 3.76702 11.347C3.38569 10.9763 2.86851 10.7681 2.32923 10.7681ZM5.71812 23.9457C5.71812 24.2952 5.86094 24.6304 6.11515 24.8775C6.36937 25.1246 6.71416 25.2635 7.07368 25.2635H8.42923V29.8756C8.42923 30.3999 8.64346 30.9026 9.02478 31.2733C9.40611 31.644 9.92329 31.8523 10.4626 31.8523C11.0018 31.8523 11.519 31.644 11.9003 31.2733C12.2817 30.9026 12.4959 30.3999 12.4959 29.8756V25.2635H15.207V29.8756C15.207 30.3999 15.4212 30.9026 15.8026 31.2733C16.1839 31.644 16.7011 31.8523 17.2403 31.8523C17.7796 31.8523 18.2968 31.644 18.6781 31.2733C19.0595 30.9026 19.2737 30.3999 19.2737 29.8756V25.2635H20.6292C20.9887 25.2635 21.3335 25.1246 21.5878 24.8775C21.842 24.6304 21.9848 24.2952 21.9848 23.9457V10.7681H5.71812V23.9457Z" fill="black"/>
</svg>
