<svg width="167" height="55" viewBox="0 0 167 55" fill="none" xmlns="http://www.w3.org/2000/svg">
<path d="M0 9.25921C0 4.26819 4.04602 0.222168 9.03704 0.222168H157.019C162.01 0.222168 166.056 4.26819 166.056 9.2592V45.4074C166.056 50.3984 162.01 54.4444 157.019 54.4444H9.03704C4.04602 54.4444 0 50.3984 0 45.4074V9.25921Z" fill="white"/>
<path d="M28.9181 17.8148H27.5626V16.497H28.9181V17.8148ZM22.1403 17.8148H20.7848V16.497H22.1403V17.8148ZM29.6366 14.0723L31.4123 12.3461C31.6699 12.0957 31.6699 11.674 31.4123 11.4104C31.1412 11.1601 30.7075 11.1601 30.4499 11.4104L28.4437 13.3607C27.3592 12.8468 26.1392 12.5437 24.8515 12.5437C23.5501 12.5437 22.3301 12.8468 21.2457 13.3739L19.2259 11.4104C18.9683 11.1601 18.5346 11.1601 18.277 11.4104C18.0059 11.674 18.0059 12.0957 18.277 12.3461L20.0528 14.0723C18.033 15.5219 16.7181 17.8148 16.7181 20.4503H32.9848C32.9848 17.8148 31.6292 15.5087 29.6366 14.0723ZM36.3737 21.7681C35.8344 21.7681 35.3172 21.9763 34.9359 22.347C34.5546 22.7177 34.3403 23.2205 34.3403 23.7447V32.9691C34.3403 33.4933 34.5546 33.9961 34.9359 34.3668C35.3172 34.7374 35.8344 34.9457 36.3737 34.9457C36.913 34.9457 37.4301 34.7374 37.8115 34.3668C38.1928 33.9961 38.407 33.4933 38.407 32.9691V23.7447C38.407 23.2205 38.1928 22.7177 37.8115 22.347C37.4301 21.9763 36.913 21.7681 36.3737 21.7681ZM13.3292 21.7681C12.79 21.7681 12.2728 21.9763 11.8914 22.347C11.5101 22.7177 11.2959 23.2205 11.2959 23.7447V32.9691C11.2959 33.4933 11.5101 33.9961 11.8914 34.3668C12.2728 34.7374 12.79 34.9457 13.3292 34.9457C13.8685 34.9457 14.3857 34.7374 14.767 34.3668C15.1483 33.9961 15.3626 33.4933 15.3626 32.9691V23.7447C15.3626 23.2205 15.1483 22.7177 14.767 22.347C14.3857 21.9763 13.8685 21.7681 13.3292 21.7681ZM16.7181 34.9457C16.7181 35.2952 16.8609 35.6304 17.1152 35.8775C17.3694 36.1246 17.7142 36.2635 18.0737 36.2635H19.4292V40.8756C19.4292 41.3999 19.6435 41.9026 20.0248 42.2733C20.4061 42.644 20.9233 42.8523 21.4626 42.8523C22.0018 42.8523 22.519 42.644 22.9003 42.2733C23.2817 41.9026 23.4959 41.3999 23.4959 40.8756V36.2635H26.207V40.8756C26.207 41.3999 26.4212 41.9026 26.8026 42.2733C27.1839 42.644 27.7011 42.8523 28.2403 42.8523C28.7796 42.8523 29.2968 42.644 29.6781 42.2733C30.0595 41.9026 30.2737 41.3999 30.2737 40.8756V36.2635H31.6292C31.9887 36.2635 32.3335 36.1246 32.5878 35.8775C32.842 35.6304 32.9848 35.2952 32.9848 34.9457V21.7681H16.7181V34.9457Z" fill="black"/>
<path d="M57.284 17.2472V16.1972H61.454V16.4372C61.454 17.6772 61.134 18.7322 60.494 19.6022C59.604 20.8022 58.364 21.4022 56.774 21.4022C55.294 21.4022 54.059 20.9072 53.069 19.9172C52.079 18.9172 51.584 17.6872 51.584 16.2272C51.584 14.7672 52.079 13.5422 53.069 12.5522C54.069 11.5522 55.314 11.0522 56.804 11.0522C57.984 11.0522 59.004 11.3822 59.864 12.0422C60.304 12.3822 60.689 12.7772 61.019 13.2272L60.194 13.9772C59.904 13.5672 59.589 13.2222 59.249 12.9422C58.559 12.3822 57.749 12.1022 56.819 12.1022C55.629 12.1022 54.649 12.4972 53.879 13.2872C53.109 14.0772 52.724 15.0622 52.724 16.2422C52.724 17.1022 52.934 17.8572 53.354 18.5072C53.774 19.1472 54.284 19.6172 54.884 19.9172C55.494 20.2072 56.129 20.3522 56.789 20.3522C57.449 20.3522 58.049 20.2022 58.589 19.9022C59.139 19.5922 59.559 19.1822 59.849 18.6722C60.099 18.2422 60.234 17.7672 60.254 17.2472H57.284ZM68.0662 19.1372L68.9662 19.6322C68.7562 20.0322 68.5012 20.3672 68.2012 20.6372C67.6312 21.1472 66.9412 21.4022 66.1312 21.4022C65.2912 21.4022 64.5662 21.1322 63.9562 20.5922C63.3562 20.0422 63.0562 19.2272 63.0562 18.1472C63.0562 17.1972 63.3262 16.4122 63.8662 15.7922C64.4162 15.1622 65.1512 14.8472 66.0712 14.8472C67.1112 14.8472 67.8962 15.2272 68.4262 15.9872C68.8462 16.5872 69.0412 17.3672 69.0112 18.3272H64.1662C64.1762 18.9572 64.3712 19.4672 64.7512 19.8572C65.1312 20.2472 65.5962 20.4422 66.1462 20.4422C66.6362 20.4422 67.0612 20.2922 67.4212 19.9922C67.7012 19.7522 67.9162 19.4672 68.0662 19.1372ZM64.2412 17.4272H67.9012C67.8112 16.9372 67.5962 16.5472 67.2562 16.2572C66.9262 15.9572 66.5312 15.8072 66.0712 15.8072C65.6212 15.8072 65.2212 15.9622 64.8712 16.2722C64.5312 16.5722 64.3212 16.9572 64.2412 17.4272ZM73.0829 15.9872H72.0029V21.2222H70.9229V15.9872H70.2629V14.9972H70.9229V12.7472H72.0029V14.9972H73.0829V15.9872ZM78.0518 14.9972H79.1318V21.2222H78.0518V14.9972ZM78.0518 13.1822C77.9018 13.0322 77.8268 12.8522 77.8268 12.6422C77.8268 12.4322 77.9018 12.2522 78.0518 12.1022C78.2018 11.9522 78.3818 11.8772 78.5918 11.8772C78.8018 11.8772 78.9818 11.9522 79.1318 12.1022C79.2818 12.2522 79.3568 12.4322 79.3568 12.6422C79.3568 12.8522 79.2818 13.0322 79.1318 13.1822C78.9818 13.3322 78.8018 13.4072 78.5918 13.4072C78.3818 13.4072 78.2018 13.3322 78.0518 13.1822ZM83.587 15.9872H82.507V21.2222H81.427V15.9872H80.767V14.9972H81.427V12.7472H82.507V14.9972H83.587V15.9872ZM93.8209 20.4722C93.2009 21.0922 92.4159 21.4022 91.4659 21.4022C90.5159 21.4022 89.7259 21.0922 89.0959 20.4722C88.4759 19.8522 88.1659 19.0722 88.1659 18.1322C88.1659 17.1822 88.4759 16.3972 89.0959 15.7772C89.7259 15.1572 90.5159 14.8472 91.4659 14.8472C92.4159 14.8472 93.2009 15.1572 93.8209 15.7772C94.4509 16.3972 94.7659 17.1822 94.7659 18.1322C94.7659 19.0722 94.4509 19.8522 93.8209 20.4722ZM93.0109 16.4222C92.5909 16.0122 92.0759 15.8072 91.4659 15.8072C90.8559 15.8072 90.3359 16.0172 89.9059 16.4372C89.4859 16.8472 89.2759 17.4122 89.2759 18.1322C89.2759 18.8522 89.4909 19.4172 89.9209 19.8272C90.3509 20.2372 90.8659 20.4422 91.4659 20.4422C92.0659 20.4422 92.5809 20.2372 93.0109 19.8272C93.4409 19.4172 93.6559 18.8522 93.6559 18.1322C93.6559 17.4022 93.4409 16.8322 93.0109 16.4222ZM96.6471 21.2222V14.9972H97.7271V15.7172C98.1671 15.1372 98.7621 14.8472 99.5121 14.8472C100.312 14.8472 100.907 15.1322 101.297 15.7022C101.537 16.0522 101.657 16.6072 101.657 17.3672V21.2222H100.577V17.3972C100.577 16.8872 100.482 16.5072 100.292 16.2572C100.062 15.9572 99.7221 15.8072 99.2721 15.8072C98.8121 15.8072 98.4471 15.9672 98.1771 16.2872C97.8771 16.6372 97.7271 17.1972 97.7271 17.9672V21.2222H96.6471Z" fill="black"/>
<path d="M61.434 41.0366L60.254 38.2366H54.874L53.694 41.0366H50.874L56.614 27.6966H58.654L64.234 41.0366H61.434ZM55.694 36.1166H59.494L57.594 31.3166L55.694 36.1166ZM65.7315 41.0366V32.3766H68.1715V33.4966C68.8382 32.5633 69.7315 32.0966 70.8515 32.0966C71.9848 32.0966 72.8382 32.45 73.4115 33.1566C73.8648 33.7166 74.0915 34.53 74.0915 35.5966V41.0366H71.6515V36.3166C71.6515 35.5033 71.4982 34.9366 71.1915 34.6166C70.9115 34.3233 70.5315 34.1766 70.0515 34.1766C69.3848 34.1766 68.8848 34.43 68.5515 34.9366C68.2982 35.3366 68.1715 35.8966 68.1715 36.6166V41.0366H65.7315ZM83.3551 33.4966V26.4566H85.7951V41.0366H83.3551V39.9166C82.7017 40.85 81.8151 41.3166 80.6951 41.3166C79.3884 41.3166 78.3217 40.87 77.4951 39.9766C76.6817 39.0833 76.2751 37.99 76.2751 36.6966C76.2751 35.39 76.6751 34.2966 77.4751 33.4166C78.2751 32.5366 79.3084 32.0966 80.5751 32.0966C81.8284 32.0966 82.7551 32.5633 83.3551 33.4966ZM82.9151 34.9566C82.4617 34.49 81.8884 34.2566 81.1951 34.2566C80.5017 34.2566 79.9284 34.49 79.4751 34.9566C79.0217 35.4233 78.7951 36.0033 78.7951 36.6966C78.7951 37.39 79.0217 37.9766 79.4751 38.4566C79.9284 38.9233 80.5017 39.1566 81.1951 39.1566C81.8884 39.1566 82.4617 38.9233 82.9151 38.4566C83.3684 37.9766 83.5951 37.39 83.5951 36.6966C83.5951 36.0033 83.3684 35.4233 82.9151 34.9566ZM88.4213 41.0366V32.3766H90.8613V33.6766C91.1547 33.1166 91.5147 32.7166 91.9413 32.4766C92.3413 32.2233 92.8213 32.0966 93.3813 32.0966C93.7013 32.0966 94.048 32.1633 94.4213 32.2966L94.1013 34.5766C93.7947 34.3633 93.4147 34.2566 92.9613 34.2566C92.2547 34.2566 91.7147 34.49 91.3413 34.9566C91.0213 35.3566 90.8613 35.9966 90.8613 36.8766V41.0366H88.4213ZM96.753 33.3166C97.633 32.5033 98.7997 32.0966 100.253 32.0966C101.706 32.0966 102.873 32.5033 103.753 33.3166C104.726 34.1966 105.213 35.33 105.213 36.7166C105.213 38.09 104.726 39.2166 103.753 40.0966C102.873 40.91 101.706 41.3166 100.253 41.3166C98.7997 41.3166 97.633 40.91 96.753 40.0966C95.7797 39.2166 95.293 38.09 95.293 36.7166C95.293 35.33 95.7797 34.1966 96.753 33.3166ZM98.513 38.4366C98.9797 38.9166 99.5597 39.1566 100.253 39.1566C100.946 39.1566 101.526 38.9166 101.993 38.4366C102.46 37.9566 102.693 37.3833 102.693 36.7166C102.693 36.0366 102.46 35.4566 101.993 34.9766C101.526 34.4966 100.946 34.2566 100.253 34.2566C99.5597 34.2566 98.9797 34.4966 98.513 34.9766C98.0464 35.4566 97.813 36.0366 97.813 36.7166C97.813 37.3833 98.0464 37.9566 98.513 38.4366ZM107.4 32.3766H109.84V41.0366H107.4V32.3766ZM107.58 29.7566C107.3 29.4633 107.16 29.1166 107.16 28.7166C107.16 28.3166 107.3 27.9766 107.58 27.6966C107.874 27.4033 108.22 27.2566 108.62 27.2566C109.02 27.2566 109.36 27.4033 109.64 27.6966C109.934 27.9766 110.08 28.3166 110.08 28.7166C110.08 29.1166 109.934 29.4633 109.64 29.7566C109.36 30.0366 109.02 30.1766 108.62 30.1766C108.22 30.1766 107.874 30.0366 107.58 29.7566ZM119.106 33.4966V26.4566H121.546V41.0366H119.106V39.9166C118.453 40.85 117.566 41.3166 116.446 41.3166C115.139 41.3166 114.073 40.87 113.246 39.9766C112.433 39.0833 112.026 37.99 112.026 36.6966C112.026 35.39 112.426 34.2966 113.226 33.4166C114.026 32.5366 115.059 32.0966 116.326 32.0966C117.579 32.0966 118.506 32.5633 119.106 33.4966ZM118.666 34.9566C118.213 34.49 117.639 34.2566 116.946 34.2566C116.253 34.2566 115.679 34.49 115.226 34.9566C114.773 35.4233 114.546 36.0033 114.546 36.6966C114.546 37.39 114.773 37.9766 115.226 38.4566C115.679 38.9233 116.253 39.1566 116.946 39.1566C117.639 39.1566 118.213 38.9233 118.666 38.4566C119.119 37.9766 119.346 37.39 119.346 36.6966C119.346 36.0033 119.119 35.4233 118.666 34.9566Z" fill="black"/>
</svg>
