<svg width="167" height="55" viewBox="0 0 167 55" fill="none" xmlns="http://www.w3.org/2000/svg">
<path d="M0 9.03704C0 4.04602 4.04602 0 9.03704 0H157.019C162.01 0 166.056 4.04602 166.056 9.03704V45.1852C166.056 50.1762 162.01 54.2222 157.019 54.2222H9.03704C4.04602 54.2222 0 50.1762 0 45.1852V9.03704Z" fill="white"/>
<path d="M36.1975 38.6746C34.8685 40.6355 33.4594 42.5489 31.3137 42.5806C29.168 42.628 28.4794 41.3313 26.0455 41.3313C23.5956 41.3313 22.843 42.5489 20.8094 42.628C18.7117 42.7071 17.1264 40.5406 15.7814 38.6271C13.0432 34.7211 10.9456 27.5259 13.7638 22.6869C15.1569 20.2832 17.6549 18.765 20.361 18.7176C22.4106 18.686 24.3642 20.0934 25.6292 20.0934C26.8781 20.0934 29.248 18.4013 31.73 18.6544C32.7708 18.7018 35.6851 19.0655 37.5586 21.7855C37.4145 21.8804 34.0838 23.8096 34.1159 27.8105C34.1639 32.5863 38.3592 34.1835 38.4073 34.1993C38.3592 34.31 37.7347 36.4765 36.1975 38.6746ZM27.0543 13.3726C28.2232 12.06 30.1607 11.0637 31.762 11.0005C31.9702 12.8507 31.2176 14.7167 30.0967 16.0451C28.9918 17.3892 27.1664 18.433 25.373 18.2906C25.1328 16.4721 26.0295 14.5744 27.0543 13.3726Z" fill="black"/>
<path d="M57.284 17.025V15.975H61.454V16.215C61.454 17.455 61.134 18.51 60.494 19.38C59.604 20.58 58.364 21.18 56.774 21.18C55.294 21.18 54.059 20.685 53.069 19.695C52.079 18.695 51.584 17.465 51.584 16.005C51.584 14.545 52.079 13.32 53.069 12.33C54.069 11.33 55.314 10.83 56.804 10.83C57.984 10.83 59.004 11.16 59.864 11.82C60.304 12.16 60.689 12.555 61.019 13.005L60.194 13.755C59.904 13.345 59.589 13 59.249 12.72C58.559 12.16 57.749 11.88 56.819 11.88C55.629 11.88 54.649 12.275 53.879 13.065C53.109 13.855 52.724 14.84 52.724 16.02C52.724 16.88 52.934 17.635 53.354 18.285C53.774 18.925 54.284 19.395 54.884 19.695C55.494 19.985 56.129 20.13 56.789 20.13C57.449 20.13 58.049 19.98 58.589 19.68C59.139 19.37 59.559 18.96 59.849 18.45C60.099 18.02 60.234 17.545 60.254 17.025H57.284ZM68.0662 18.915L68.9662 19.41C68.7562 19.81 68.5012 20.145 68.2012 20.415C67.6312 20.925 66.9412 21.18 66.1312 21.18C65.2912 21.18 64.5662 20.91 63.9562 20.37C63.3562 19.82 63.0562 19.005 63.0562 17.925C63.0562 16.975 63.3262 16.19 63.8662 15.57C64.4162 14.94 65.1512 14.625 66.0712 14.625C67.1112 14.625 67.8962 15.005 68.4262 15.765C68.8462 16.365 69.0412 17.145 69.0112 18.105H64.1662C64.1762 18.735 64.3712 19.245 64.7512 19.635C65.1312 20.025 65.5962 20.22 66.1462 20.22C66.6362 20.22 67.0612 20.07 67.4212 19.77C67.7012 19.53 67.9162 19.245 68.0662 18.915ZM64.2412 17.205H67.9012C67.8112 16.715 67.5962 16.325 67.2562 16.035C66.9262 15.735 66.5312 15.585 66.0712 15.585C65.6212 15.585 65.2212 15.74 64.8712 16.05C64.5312 16.35 64.3212 16.735 64.2412 17.205ZM73.0829 15.765H72.0029V21H70.9229V15.765H70.2629V14.775H70.9229V12.525H72.0029V14.775H73.0829V15.765ZM78.0518 14.775H79.1318V21H78.0518V14.775ZM78.0518 12.96C77.9018 12.81 77.8268 12.63 77.8268 12.42C77.8268 12.21 77.9018 12.03 78.0518 11.88C78.2018 11.73 78.3818 11.655 78.5918 11.655C78.8018 11.655 78.9818 11.73 79.1318 11.88C79.2818 12.03 79.3568 12.21 79.3568 12.42C79.3568 12.63 79.2818 12.81 79.1318 12.96C78.9818 13.11 78.8018 13.185 78.5918 13.185C78.3818 13.185 78.2018 13.11 78.0518 12.96ZM83.587 15.765H82.507V21H81.427V15.765H80.767V14.775H81.427V12.525H82.507V14.775H83.587V15.765ZM91.1959 15.765H89.6659V21H88.5859V15.765H87.9859V14.775H88.5859V12.06C88.5859 11.23 88.7859 10.645 89.1859 10.305C89.5059 10.035 89.9209 9.9 90.4309 9.9C90.7009 9.9 90.9559 9.945 91.1959 10.035V11.085C90.9759 10.995 90.7409 10.95 90.4909 10.95C90.1609 10.95 89.9309 11.06 89.8009 11.28C89.7109 11.43 89.6659 11.73 89.6659 12.18V14.775H91.1959V15.765ZM92.3845 21V14.775H93.4645V15.45C93.8145 14.9 94.2845 14.625 94.8745 14.625C95.1745 14.625 95.4945 14.71 95.8345 14.88L95.3245 15.855C95.1245 15.715 94.9145 15.645 94.6945 15.645C94.3145 15.645 94.0245 15.775 93.8245 16.035C93.5845 16.355 93.4645 16.915 93.4645 17.715V21H92.3845ZM101.947 20.25C101.327 20.87 100.542 21.18 99.5917 21.18C98.6417 21.18 97.8517 20.87 97.2217 20.25C96.6017 19.63 96.2917 18.85 96.2917 17.91C96.2917 16.96 96.6017 16.175 97.2217 15.555C97.8517 14.935 98.6417 14.625 99.5917 14.625C100.542 14.625 101.327 14.935 101.947 15.555C102.577 16.175 102.892 16.96 102.892 17.91C102.892 18.85 102.577 19.63 101.947 20.25ZM101.137 16.2C100.717 15.79 100.202 15.585 99.5917 15.585C98.9817 15.585 98.4617 15.795 98.0317 16.215C97.6117 16.625 97.4017 17.19 97.4017 17.91C97.4017 18.63 97.6167 19.195 98.0467 19.605C98.4767 20.015 98.9917 20.22 99.5917 20.22C100.192 20.22 100.707 20.015 101.137 19.605C101.567 19.195 101.782 18.63 101.782 17.91C101.782 17.18 101.567 16.61 101.137 16.2ZM104.773 21V14.775H105.853V15.435C106.223 14.895 106.738 14.625 107.398 14.625C108.148 14.625 108.713 14.96 109.093 15.63C109.523 14.96 110.148 14.625 110.968 14.625C112.318 14.625 112.993 15.435 112.993 17.055V21H111.913V17.22C111.913 16.92 111.893 16.67 111.853 16.47C111.823 16.26 111.718 16.06 111.538 15.87C111.368 15.68 111.123 15.585 110.803 15.585C109.883 15.585 109.423 16.235 109.423 17.535V21H108.343V17.31C108.343 16.16 107.968 15.585 107.218 15.585C106.308 15.585 105.853 16.26 105.853 17.61V21H104.773Z" fill="black"/>
<path d="M61.434 40.8145L60.254 38.0145H54.874L53.694 40.8145H50.874L56.614 27.4745H58.654L64.234 40.8145H61.434ZM55.694 35.8945H59.494L57.594 31.0945L55.694 35.8945ZM68.1715 39.6945V45.3945H65.7315V32.1545H68.1715V33.2745C68.8248 32.3411 69.7648 31.8745 70.9915 31.8745C72.1915 31.8745 73.1782 32.2611 73.9515 33.0345C74.8182 33.9011 75.2515 35.0478 75.2515 36.4745C75.2515 37.9411 74.7982 39.1078 73.8915 39.9745C73.0915 40.7211 72.1115 41.0945 70.9515 41.0945C69.7915 41.0945 68.8648 40.6278 68.1715 39.6945ZM70.3315 34.0345C69.7048 34.0345 69.1782 34.2278 68.7515 34.6145C68.2048 35.0811 67.9315 35.7011 67.9315 36.4745C67.9315 37.2611 68.1982 37.8878 68.7315 38.3545C69.1715 38.7411 69.7048 38.9345 70.3315 38.9345C70.9848 38.9345 71.5315 38.7278 71.9715 38.3145C72.4782 37.8478 72.7315 37.2345 72.7315 36.4745C72.7315 35.7278 72.4848 35.1211 71.9915 34.6545C71.5382 34.2411 70.9848 34.0345 70.3315 34.0345ZM79.8777 39.6945V45.3945H77.4377V32.1545H79.8777V33.2745C80.5311 32.3411 81.4711 31.8745 82.6977 31.8745C83.8977 31.8745 84.8844 32.2611 85.6577 33.0345C86.5244 33.9011 86.9577 35.0478 86.9577 36.4745C86.9577 37.9411 86.5044 39.1078 85.5977 39.9745C84.7977 40.7211 83.8177 41.0945 82.6577 41.0945C81.4977 41.0945 80.5711 40.6278 79.8777 39.6945ZM82.0377 34.0345C81.4111 34.0345 80.8844 34.2278 80.4577 34.6145C79.9111 35.0811 79.6377 35.7011 79.6377 36.4745C79.6377 37.2611 79.9044 37.8878 80.4377 38.3545C80.8777 38.7411 81.4111 38.9345 82.0377 38.9345C82.6911 38.9345 83.2377 38.7278 83.6777 38.3145C84.1844 37.8478 84.4377 37.2345 84.4377 36.4745C84.4377 35.7278 84.1911 35.1211 83.6977 34.6545C83.2444 34.2411 82.6911 34.0345 82.0377 34.0345ZM102.392 28.7345L101.032 30.5145C100.459 29.7545 99.732 29.3745 98.852 29.3745C98.212 29.3745 97.7453 29.5345 97.452 29.8545C97.1586 30.1611 97.012 30.5211 97.012 30.9345C97.012 31.2945 97.152 31.5945 97.432 31.8345C97.6453 32.0345 98.1786 32.2878 99.032 32.5945C100.352 33.0478 101.252 33.4945 101.732 33.9345C102.492 34.6145 102.872 35.5478 102.872 36.7345C102.872 38.0411 102.439 39.1011 101.572 39.9145C100.719 40.7145 99.6053 41.1145 98.232 41.1145C96.312 41.1145 94.7786 40.2745 93.632 38.5945L95.332 36.9745C95.6253 37.5745 96.032 38.0211 96.552 38.3145C97.072 38.6078 97.5986 38.7545 98.132 38.7545C98.732 38.7545 99.2253 38.5878 99.612 38.2545C99.9986 37.9078 100.192 37.4611 100.192 36.9145C100.192 36.4478 100.019 36.0478 99.672 35.7145C99.352 35.4211 98.6653 35.0945 97.612 34.7345C96.6253 34.4011 95.8853 34.0145 95.392 33.5745C94.6853 32.9611 94.332 32.1345 94.332 31.0945C94.332 30.0145 94.6986 29.0945 95.432 28.3345C96.1653 27.5611 97.2253 27.1745 98.612 27.1745C100.119 27.1745 101.379 27.6945 102.392 28.7345ZM109.216 34.2345H107.536V40.8145H105.096V34.2345H104.136V32.1545H105.096V29.1945H107.536V32.1545H109.216V34.2345ZM111.806 33.0945C112.686 32.2811 113.853 31.8745 115.306 31.8745C116.76 31.8745 117.926 32.2811 118.806 33.0945C119.78 33.9745 120.266 35.1078 120.266 36.4945C120.266 37.8678 119.78 38.9945 118.806 39.8745C117.926 40.6878 116.76 41.0945 115.306 41.0945C113.853 41.0945 112.686 40.6878 111.806 39.8745C110.833 38.9945 110.346 37.8678 110.346 36.4945C110.346 35.1078 110.833 33.9745 111.806 33.0945ZM113.566 38.2145C114.033 38.6945 114.613 38.9345 115.306 38.9345C116 38.9345 116.58 38.6945 117.046 38.2145C117.513 37.7345 117.746 37.1611 117.746 36.4945C117.746 35.8145 117.513 35.2345 117.046 34.7545C116.58 34.2745 116 34.0345 115.306 34.0345C114.613 34.0345 114.033 34.2745 113.566 34.7545C113.1 35.2345 112.866 35.8145 112.866 36.4945C112.866 37.1611 113.1 37.7345 113.566 38.2145ZM122.453 40.8145V32.1545H124.893V33.4545C125.187 32.8945 125.547 32.4945 125.973 32.2545C126.373 32.0011 126.853 31.8745 127.413 31.8745C127.733 31.8745 128.08 31.9411 128.453 32.0745L128.133 34.3545C127.827 34.1411 127.447 34.0345 126.993 34.0345C126.287 34.0345 125.747 34.2678 125.373 34.7345C125.053 35.1345 124.893 35.7745 124.893 36.6545V40.8145H122.453ZM135.791 38.0345L138.031 38.3945C137.937 38.6345 137.811 38.8745 137.651 39.1145C137.504 39.3411 137.271 39.6278 136.951 39.9745C136.631 40.3078 136.197 40.5811 135.651 40.7945C135.104 40.9945 134.477 41.0945 133.771 41.0945C132.411 41.0945 131.304 40.6878 130.451 39.8745C129.544 39.0211 129.091 37.8945 129.091 36.4945C129.091 35.1078 129.531 33.9745 130.411 33.0945C131.237 32.2811 132.324 31.8745 133.671 31.8745C135.137 31.8745 136.264 32.3478 137.051 33.2945C137.744 34.1211 138.091 35.2545 138.091 36.6945V36.8945H131.611C131.611 37.4811 131.751 37.9678 132.031 38.3545C132.431 38.9011 133.011 39.1745 133.771 39.1745C134.677 39.1745 135.351 38.7945 135.791 38.0345ZM131.691 35.3345H135.791C135.697 34.7745 135.451 34.3478 135.051 34.0545C134.664 33.7478 134.224 33.5945 133.731 33.5945C133.251 33.5945 132.811 33.7478 132.411 34.0545C132.024 34.3611 131.784 34.7878 131.691 35.3345Z" fill="black"/>
</svg>
