<svg width="27" height="32" viewBox="0 0 27 32" fill="none" xmlns="http://www.w3.org/2000/svg">
<path d="M24.1975 27.6746C22.8685 29.6355 21.4594 31.5489 19.3137 31.5806C17.168 31.628 16.4794 30.3313 14.0455 30.3313C11.5956 30.3313 10.843 31.5489 8.80935 31.628C6.71169 31.7071 5.12644 29.5406 3.78138 27.6271C1.04321 23.7211 -1.05445 16.5259 1.76378 11.6869C3.15688 9.28317 5.65486 7.76505 8.361 7.71761C10.4106 7.68598 12.3642 9.0934 13.6292 9.0934C14.8781 9.0934 17.248 7.40133 19.73 7.65435C20.7708 7.70179 23.6851 8.06551 25.5586 10.7855C25.4145 10.8804 22.0838 12.8096 22.1159 16.8105C22.1639 21.5863 26.3592 23.1835 26.4073 23.1993C26.3592 23.31 25.7347 25.4765 24.1975 27.6746ZM15.0543 2.37255C16.2232 1.06001 18.1607 0.0637433 19.762 0.000488281C19.9702 1.8507 19.2176 3.71672 18.0967 5.04508C16.9918 6.38925 15.1664 7.43296 13.373 7.29063C13.1328 5.47205 14.0295 3.5744 15.0543 2.37255Z" fill="black"/>
</svg>
