<svg width="167" height="55" fill="none" xmlns="http://www.w3.org/2000/svg"><path d="M0 9.3c0-5 4-9 9-9h148c5 0 9 4 9 9v36.1c0 5-4 9-9 9H9c-5 0-9-4-9-9V9.3z" fill="#fff"/><path d="M29 17.8h-1.4v-1.3h1.3v1.3zm-6.9 0h-1.3v-1.3H22v1.3zm7.5-3.7l1.8-1.8c.3-.2.3-.6 0-.9a.7.7 0 00-1 0l-2 2a8.4 8.4 0 00-7.2 0l-2-2a.7.7 0 00-1 0c-.2.3-.2.7 0 1l1.9 1.7a7.8 7.8 0 00-3.4 6.4H33c0-2.7-1.4-5-3.4-6.4zm6.8 7.7a2 2 0 00-1.5.5 2 2 0 00-.6 1.4V33c0 .5.3 1 .6 1.4a2 2 0 003 0c.3-.4.5-1 .5-1.4v-9.3c0-.5-.2-1-.6-1.4a2 2 0 00-1.4-.5zm-23 0a2 2 0 00-1.5.5 2 2 0 00-.6 1.4V33c0 .5.2 1 .6 1.4a2 2 0 002.9 0c.3-.4.6-1 .6-1.4v-9.3c0-.5-.3-1-.6-1.4a2 2 0 00-1.5-.5zm3.3 13.1c0 .4.2.7.4 1 .3.2.6.4 1 .4h1.3v4.6c0 .5.2 1 .6 1.4a2 2 0 002.9 0c.4-.4.6-.9.6-1.4v-4.6h2.7v4.6c0 .5.2 1 .6 1.4a2 2 0 002.9 0c.4-.4.6-.9.6-1.4v-4.6h1.3c.4 0 .7-.2 1-.4.2-.3.4-.6.4-1V21.8H16.7v13.1zM57.3 17.2v-1h4.2v.2c0 1.3-.4 2.3-1 3.2a4.4 4.4 0 01-3.7 1.8 5 5 0 01-5.2-5.2 5 5 0 015.2-5.2c1.2 0 2.2.4 3 1l1.2 1.2-.8.8c-.3-.4-.6-.8-1-1-.6-.6-1.5-.9-2.4-.9a4 4 0 00-3 1.2 4 4 0 00-1 3 4 4 0 002 3.6c.7.3 1.3.5 2 .5.6 0 1.2-.2 1.8-.5.5-.3 1-.7 1.2-1.2.3-.5.4-1 .5-1.5h-3zm10.8 2l.9.4c-.2.4-.5.8-.8 1a3 3 0 01-2 .8c-1 0-1.6-.3-2.2-.8-.6-.6-1-1.4-1-2.5 0-.9.3-1.7.9-2.3.5-.6 1.3-1 2.2-1 1 0 1.8.4 2.3 1.2.4.6.6 1.4.6 2.3h-4.8c0 .7.2 1.2.6 1.6.3.3.8.5 1.3.5s1-.1 1.3-.4c.3-.2.5-.5.7-.9zm-3.9-1.8H68a2 2 0 00-.6-1.1c-.4-.3-.8-.5-1.2-.5-.5 0-.9.2-1.2.5a2 2 0 00-.7 1.1zm8.9-1.4H72v5.2h-1V16h-.7v-1h.6v-2.3H72V15h1v1zm5-1h1v6.2h-1V15zm0-1.8a.7.7 0 01-.3-.6c0-.2.1-.3.3-.5l.5-.2c.2 0 .4 0 .5.2.2.2.3.3.3.5 0 .3-.1.4-.3.6l-.5.2c-.2 0-.4 0-.5-.2zm5.5 2.8h-1v5.2h-1.2V16h-.6v-1h.6v-2.3h1.1V15h1v1zm10.2 4.5c-.6.6-1.4.9-2.3.9-1 0-1.8-.3-2.4-1-.6-.5-1-1.3-1-2.3a3.2 3.2 0 013.4-3.3 3.2 3.2 0 013.3 3.3c0 1-.3 1.8-1 2.4zm-.8-4c-.4-.5-1-.7-1.5-.7-.6 0-1.2.2-1.6.6-.4.4-.6 1-.6 1.7 0 .8.2 1.3.6 1.7.5.4 1 .6 1.6.6.6 0 1-.2 1.5-.6.4-.4.7-1 .7-1.7s-.3-1.3-.7-1.7zm3.6 4.7V15h1.1v.7c.5-.6 1-.9 1.8-.9s1.4.3 1.8.9c.2.4.4 1 .4 1.7v3.8h-1.1v-3.8c0-.5-.1-.9-.3-1.1-.2-.3-.6-.5-1-.5-.5 0-.9.2-1.1.5-.3.3-.5.9-.5 1.7v3.2h-1zM61.4 41l-1.1-2.8h-5.4L53.7 41h-2.8l5.7-13.3h2L64.3 41h-2.8zm-5.7-4.9h3.8l-2-4.8-1.8 4.8zm10 5v-8.7h2.5v1.1c.6-1 1.5-1.4 2.7-1.4 1 0 2 .4 2.5 1s.7 1.4.7 2.5V41h-2.4v-4.7c0-.8-.2-1.4-.5-1.7-.3-.3-.7-.4-1.1-.4-.7 0-1.2.2-1.5.7-.3.4-.4 1-.4 1.7V41h-2.5zm17.7-7.6v-7h2.4V41h-2.4v-1a3 3 0 01-2.7 1.3c-1.3 0-2.4-.4-3.2-1.3-.8-1-1.2-2-1.2-3.3 0-1.3.4-2.4 1.2-3.3a4 4 0 013-1.3c1.3 0 2.3.5 2.9 1.4zm-.5 1.5c-.4-.5-1-.7-1.7-.7s-1.3.2-1.7.7c-.5.4-.7 1-.7 1.7s.2 1.3.7 1.8c.4.4 1 .7 1.7.7s1.3-.3 1.7-.7c.5-.5.7-1.1.7-1.8s-.2-1.3-.7-1.7zm5.5 6v-8.6H91v1.3c.3-.6.6-1 1-1.2.4-.3 1-.4 1.5-.4.3 0 .6 0 1 .2l-.3 2.3a2 2 0 00-1.1-.3c-.7 0-1.3.2-1.7.7-.3.4-.4 1-.4 1.9V41h-2.5zm8.4-7.7a5 5 0 013.5-1.2 5 5 0 013.5 1.2c1 .9 1.4 2 1.4 3.4s-.5 2.5-1.4 3.4a5 5 0 01-3.5 1.2 5 5 0 01-3.5-1.2c-1-.9-1.5-2-1.5-3.4s.5-2.5 1.5-3.4zm1.7 5.1c.5.5 1 .8 1.8.8.6 0 1.2-.3 1.7-.8.5-.4.7-1 .7-1.7s-.2-1.2-.7-1.7c-.5-.5-1-.7-1.7-.7s-1.3.2-1.8.7c-.5.5-.7 1-.7 1.7s.2 1.3.7 1.7zm8.9-6h2.4V41h-2.4v-8.6zm.2-2.6c-.3-.3-.4-.7-.4-1 0-.5.1-.8.4-1.1a1.4 1.4 0 012 0c.3.3.5.6.5 1s-.2.8-.5 1c-.2.3-.6.5-1 .5s-.7-.2-1-.4zm11.5 3.7v-7h2.4V41h-2.4v-1a3 3 0 01-2.7 1.3c-1.3 0-2.3-.4-3.2-1.3-.8-1-1.2-2-1.2-3.3 0-1.3.4-2.4 1.2-3.3a4 4 0 013.1-1.3c1.3 0 2.2.5 2.8 1.4zm-.4 1.5c-.5-.5-1-.7-1.8-.7-.6 0-1.2.2-1.7.7-.4.4-.7 1-.7 1.7s.3 1.3.7 1.8c.5.4 1 .7 1.7.7s1.3-.3 1.8-.7c.4-.5.6-1.1.6-1.8s-.2-1.3-.6-1.7z" fill="#000"/></svg>