<svg width="167" height="55" fill="none" xmlns="http://www.w3.org/2000/svg"><path d="M0 9c0-5 4-9 9-9h148c5 0 9 4 9 9v36.2c0 5-4 9-9 9H9c-5 0-9-4-9-9V9z" fill="#fff"/><path d="M36.2 38.7c-1.3 2-2.7 3.8-4.9 3.9-2.1 0-2.8-1.3-5.3-1.3-2.4 0-3.2 1.2-5.2 1.3-2 .1-3.7-2-5-4-2.8-3.9-4.9-11-2-16 1.4-2.3 3.9-3.8 6.6-3.9 2 0 4 1.4 5.2 1.4 1.3 0 3.6-1.7 6.1-1.4 1 0 4 .4 5.9 3-.2.2-3.5 2.1-3.5 6.1a7 7 0 004.3 6.4c0 .1-.7 2.3-2.2 4.5zm-9.1-25.3a7.3 7.3 0 014.7-2.4c.2 1.9-.6 3.7-1.7 5a5.9 5.9 0 01-4.7 2.3c-.3-1.8.6-3.7 1.7-5zM57.3 17v-1h4.2v.2c0 1.3-.4 2.3-1 3.2a4.4 4.4 0 01-3.7 1.8 5 5 0 01-5.2-5.2 5 5 0 015.2-5.2c1.2 0 2.2.4 3 1L61 13l-.8.8c-.3-.5-.6-.8-1-1-.6-.6-1.5-1-2.4-1a4 4 0 00-3 1.3 4 4 0 00-1 3 4 4 0 002 3.6c.7.3 1.3.4 2 .4a3.2 3.2 0 003-1.7c.3-.4.4-.9.5-1.4h-3zM68 19l.9.4-.8 1a3 3 0 01-2 .8c-1 0-1.6-.3-2.2-.8-.6-.6-1-1.4-1-2.5 0-1 .3-1.7.9-2.3.5-.7 1.3-1 2.2-1 1 0 1.8.4 2.3 1.2.4.6.6 1.3.6 2.3h-4.8c0 .6.2 1.1.6 1.5.3.4.8.6 1.3.6s1-.1 1.3-.4l.7-.9zm-3.9-1.8H68a2 2 0 00-.6-1.2c-.4-.3-.8-.4-1.2-.4-.5 0-.9.1-1.2.5a2 2 0 00-.7 1.1zm8.9-1.4H72V21h-1v-5.2h-.7v-1h.6v-2.3H72v2.3h1v1zm5-1h1V21h-1v-6.2zm0-1.8a.7.7 0 01-.3-.6c0-.2.1-.4.3-.5.1-.2.3-.2.5-.2s.4 0 .5.2c.2.1.3.3.3.5l-.3.6-.5.2c-.2 0-.4 0-.5-.2zm5.5 2.8h-1V21h-1.2v-5.2h-.6v-1h.6v-2.3h1.1v2.3h1v1zm7.6 0h-1.5V21h-1.1v-5.2H88v-1h.6V12c0-.9.2-1.5.6-1.8.3-.3.7-.4 1.2-.4l.8.1v1h-.7c-.3 0-.6 0-.7.3l-.1.9v2.6h1.5v1zm1.2 5.2v-6.2h1v.6c.4-.5.9-.8 1.5-.8l1 .3-.6 1a1 1 0 00-.6-.3 1 1 0 00-.9.4c-.2.4-.3 1-.3 1.7V21h-1.1zm9.5-.8c-.6.7-1.4 1-2.3 1-1 0-1.7-.3-2.4-1-.6-.6-1-1.3-1-2.3a3.2 3.2 0 013.4-3.3 3.2 3.2 0 013.3 3.3c0 1-.3 1.7-1 2.4zm-.8-4c-.4-.4-.9-.6-1.5-.6s-1.1.2-1.6.6c-.4.4-.6 1-.6 1.7s.2 1.3.6 1.7c.5.4 1 .6 1.6.6.6 0 1.1-.2 1.5-.6.5-.4.7-1 .7-1.7s-.2-1.3-.7-1.7zm3.7 4.8v-6.2h1v.6c.4-.5 1-.8 1.6-.8.7 0 1.3.4 1.7 1 .4-.6 1-1 1.9-1 1.3 0 2 .8 2 2.5V21h-1v-3.8l-.1-.7c0-.2-.2-.4-.4-.6-.1-.2-.4-.3-.7-.3-1 0-1.4.6-1.4 2V21h-1v-3.7c0-1.1-.4-1.7-1.2-1.7-.9 0-1.3.7-1.3 2V21h-1.1zM61.4 40.8L60.3 38h-5.4l-1.2 2.8h-2.8l5.7-13.3h2l5.6 13.3h-2.8zm-5.7-5h3.8l-2-4.7-1.8 4.8zm12.5 3.9v5.7h-2.5V32.2h2.5v1c.6-.9 1.6-1.3 2.8-1.3a4 4 0 013 1.1c.8.9 1.3 2 1.3 3.5 0 1.4-.5 2.6-1.4 3.5-.8.7-1.8 1-3 1-1.1 0-2-.4-2.7-1.3zm2.1-5.7c-.6 0-1.1.2-1.5.6-.6.5-.9 1.1-.9 1.9 0 .8.3 1.4.8 1.9.5.3 1 .5 1.6.5.7 0 1.2-.2 1.7-.6.5-.5.7-1 .7-1.8s-.2-1.4-.7-1.8c-.5-.5-1-.7-1.7-.7zm9.6 5.7v5.7h-2.5V32.2H80v1c.6-.9 1.6-1.3 2.8-1.3a4 4 0 013 1.1c.8.9 1.3 2 1.3 3.5 0 1.4-.5 2.6-1.4 3.5-.8.7-1.8 1-3 1-1.1 0-2-.4-2.7-1.3zM82 34c-.6 0-1.1.2-1.5.6-.6.5-.9 1.1-.9 1.9 0 .8.3 1.4.8 1.9.5.3 1 .5 1.6.5.7 0 1.2-.2 1.7-.6.5-.5.7-1 .7-1.8s-.2-1.4-.7-1.8c-.5-.5-1-.7-1.7-.7zm20.4-5.3l-1.4 1.8a2.6 2.6 0 00-2.1-1.1c-.7 0-1.2.1-1.4.5-.3.3-.5.6-.5 1s.2.7.4 1l1.6.7c1.4.4 2.3.9 2.7 1.3.8.7 1.2 1.6 1.2 2.8 0 1.3-.5 2.4-1.3 3.2-.9.8-2 1.2-3.4 1.2-1.9 0-3.4-.8-4.6-2.5l1.7-1.6c.3.6.7 1 1.3 1.3.5.3 1 .5 1.5.5.6 0 1.1-.2 1.5-.5.4-.4.6-.8.6-1.4 0-.5-.2-.9-.5-1.2-.3-.3-1-.6-2-1-1-.3-1.8-.7-2.3-1.1-.7-.6-1-1.5-1-2.5s.3-2 1-2.8c.8-.7 1.8-1.1 3.2-1.1a5 5 0 013.8 1.5zm6.8 5.5h-1.7v6.6h-2.4v-6.6h-1v-2h1v-3h2.4v3h1.7v2zm2.6-1.1a5 5 0 013.5-1.2 5 5 0 013.5 1.2c1 .9 1.5 2 1.5 3.4s-.5 2.5-1.5 3.4a5 5 0 01-3.5 1.2 5 5 0 01-3.5-1.2c-1-1-1.5-2-1.5-3.4s.5-2.5 1.5-3.4zm1.8 5.1c.4.5 1 .7 1.7.7s1.3-.2 1.7-.7c.5-.5.7-1 .7-1.7s-.2-1.3-.7-1.7c-.4-.5-1-.8-1.7-.8s-1.3.3-1.7.8c-.5.4-.7 1-.7 1.7s.2 1.2.7 1.7zm8.9 2.6v-8.6h2.4v1.3c.3-.6.6-1 1-1.2.5-.3 1-.4 1.5-.4.3 0 .7 0 1 .2l-.3 2.3a2 2 0 00-1.1-.4c-.7 0-1.3.3-1.6.7-.3.4-.5 1-.5 2v4.1h-2.4zm13.3-2.8l2.2.4-.3.7-.7.9-1.3.8c-.6.2-1.2.3-2 .3-1.3 0-2.4-.4-3.2-1.2-1-.9-1.4-2-1.4-3.4s.4-2.5 1.3-3.4c.8-.8 2-1.2 3.3-1.2 1.4 0 2.6.4 3.4 1.4.6.8 1 2 1 3.4v.2h-6.5c0 .6.2 1 .4 1.5.4.5 1 .8 1.8.8.9 0 1.6-.4 2-1.2zm-4.1-2.7h4c0-.5-.2-1-.6-1.2a2.1 2.1 0 00-2.6 0 2 2 0 00-.8 1.2z" fill="#000"/></svg>