<svg width="118" height="15" fill="none" xmlns="http://www.w3.org/2000/svg"><path d="M5.2 14.2c-1.3 0-2.4-.4-3.2-1.3-.8-.8-1.2-2-1.2-3.4v-.3c0-1 .2-1.8.6-2.5.3-.8.8-1.3 1.5-1.8.6-.4 1.3-.6 2-.6 1.3 0 2.3.4 3 1.2.6.9 1 2 1 3.5v.7H2.4c0 1 .3 1.7.9 2.3.5.6 1.2.8 2 .8.5 0 1 0 1.4-.3.4-.2.8-.5 1-1l1 .8a4 4 0 01-3.5 1.9zM5 5.7c-.7 0-1.2.2-1.7.7-.4.4-.7 1.1-.8 2h4.8v-.1a3 3 0 00-.7-2A2 2 0 005 5.7zm8.8 6L16 4.6h1.7L14.4 14h-1.2L9.7 4.5h1.7l2.4 7.3zm9.4 2.5c-1.3 0-2.3-.4-3.2-1.3-.8-.8-1.2-2-1.2-3.4v-.3c0-1 .2-1.8.6-2.5.3-.8.8-1.3 1.5-1.8.6-.4 1.3-.6 2-.6 1.3 0 2.3.4 3 1.2.7.9 1 2 1 3.5v.7h-6.4c0 1 .3 1.7.8 2.3.5.6 1.2.8 2 .8.6 0 1 0 1.4-.3.4-.2.8-.5 1-1l1 .8a4 4 0 01-3.5 1.9zM23 5.7c-.7 0-1.2.2-1.7.7-.4.4-.7 1.1-.8 2h4.8v-.1a3 3 0 00-.7-2 2 2 0 00-1.6-.6zm7.3-1.2v1.2c.8-1 1.8-1.4 3-1.4 2 0 3 1.1 3 3.4V14h-1.7V7.7c0-.7-.1-1.2-.4-1.5-.3-.3-.8-.5-1.5-.5-.5 0-1 .1-1.3.4-.4.3-.8.7-1 1.1V14h-1.6V4.5h1.5zM41 2.2v2.3h1.8v1.2H41v6c0 .3.1.6.3.8.1.2.4.3.8.3l.8-.1V14l-1.3.2c-.7 0-1.3-.2-1.6-.7-.4-.4-.6-1-.6-1.9V5.7h-1.7V4.5h1.7V2.2h1.6zm9.3 9.3c0-.5-.2-.8-.6-1-.3-.3-.9-.5-1.7-.7l-2-.6c-.4-.3-.8-.5-1-.9-.2-.3-.4-.7-.4-1.2 0-.8.4-1.4 1-2 .7-.5 1.5-.8 2.6-.8 1 0 2 .3 2.6.8.7.6 1 1.3 1 2.2H50c0-.5-.2-.8-.6-1.2-.4-.3-.9-.4-1.4-.4-.6 0-1.1 0-1.4.3-.4.3-.5.6-.5 1s.1.7.4 1l1.7.5c.8.2 1.5.4 2 .7.5.2.9.5 1.1.9.3.3.4.8.4 1.3 0 .8-.4 1.5-1 2-.7.5-1.6.8-2.7.8-.8 0-1.4-.2-2-.4-.6-.3-1-.7-1.4-1.2-.3-.4-.5-1-.5-1.5h1.6c0 .5.3 1 .7 1.3.4.3 1 .4 1.6.4.6 0 1.1 0 1.5-.3.4-.3.6-.6.6-1zm10.4-1.8h1.8V11h-1.8v3H59v-3H53v-1L59 1.3h1.7v8.5zm-5.6 0h4V3.4l-.2.4L55 9.7zm9.8 4.3V5.7h-1.5V4.5h1.5v-1c0-1 .3-1.8.8-2.3A3 3 0 0168 .3c.4 0 .8 0 1.1.2v1.3l-1-.1c-.4 0-.9.2-1.1.5-.3.3-.5.7-.5 1.3v1h2v1.2h-2V14h-1.6zm10-8l-.7-.1c-1.1 0-1.8.4-2.2 1.3V14h-1.6V4.5h1.5v1c.6-.8 1.4-1.2 2.3-1.2l.8.1V6zm3.3 8h-1.6V4.5h1.6V14zM76.4 2c0-.3 0-.5.2-.7.2-.2.4-.3.7-.3.3 0 .6.1.7.3.2.2.3.4.3.7 0 .2 0 .5-.3.6-.1.2-.4.3-.7.3-.3 0-.5-.1-.7-.3a1 1 0 01-.2-.6zm8.3 12.2c-1.3 0-2.4-.4-3.2-1.3-.8-.8-1.2-2-1.2-3.4v-.3c0-1 .2-1.8.6-2.5.3-.8.8-1.3 1.5-1.8.6-.4 1.3-.6 2-.6 1.3 0 2.3.4 3 1.2.6.9 1 2 1 3.5v.7h-6.5c0 1 .3 1.7.9 2.3.5.6 1.2.8 2 .8.5 0 1 0 1.4-.3.4-.2.8-.5 1-1l1 .8a4 4 0 01-3.5 1.9zm-.2-8.5c-.7 0-1.2.2-1.7.7-.4.4-.7 1.1-.8 2h4.8v-.1a3 3 0 00-.7-2 2 2 0 00-1.6-.6zm7.3-1.2v1.2c.8-1 1.7-1.4 3-1.4 2 0 3 1.1 3 3.4V14H96V7.7c0-.7-.1-1.2-.4-1.5-.3-.3-.8-.5-1.5-.5-.5 0-1 .1-1.4.4-.4.3-.7.7-.9 1.1V14h-1.6V4.5h1.5zm8 4.7c0-1.5.4-2.7 1-3.5.7-1 1.7-1.4 2.8-1.4 1 0 2 .4 2.6 1.2v-5h1.6V14h-1.5v-1c-.7.8-1.6 1.2-2.7 1.2s-2-.5-2.7-1.4c-.7-.9-1-2-1-3.5v-.1zm1.6.2c0 1 .3 1.9.7 2.5.5.6 1 .9 1.9.9 1 0 1.7-.5 2.2-1.4V7a2.4 2.4 0 00-2.2-1.3c-.8 0-1.4.3-1.9 1-.4.5-.7 1.4-.7 2.7zm14.5 2c0-.4-.2-.7-.5-1l-1.7-.6-2-.6c-.5-.3-.8-.5-1-.9-.3-.3-.4-.7-.4-1.2 0-.8.3-1.4 1-2 .6-.5 1.5-.8 2.5-.8 1.1 0 2 .3 2.6.8.7.6 1 1.3 1 2.2h-1.6c0-.5-.2-.8-.6-1.2-.3-.3-.8-.4-1.4-.4-.6 0-1 0-1.4.3-.3.3-.5.6-.5 1s.2.7.5 1l1.7.5 2 .7c.5.2.8.5 1 .9.3.3.4.8.4 1.3 0 .8-.3 1.5-1 2s-1.5.8-2.6.8c-.8 0-1.5-.2-2-.4-.6-.3-1.1-.7-1.4-1.2-.4-.4-.5-1-.5-1.5h1.6c0 .5.3 1 .7 1.3.4.3.9.4 1.6.4.6 0 1 0 1.4-.3.4-.3.6-.6.6-1z" fill="#fff"/></svg>